<?xml version="1.0" encoding="UTF-8"?><svg xmlns="http://www.w3.org/2000/svg" xmlns:xlink="http://www.w3.org/1999/xlink" fill-opacity="1" color-rendering="auto" color-interpolation="auto" text-rendering="auto" stroke="black" stroke-linecap="square" width="413" stroke-miterlimit="10" shape-rendering="auto" stroke-opacity="1" fill="black" stroke-dasharray="none" font-weight="normal" stroke-width="1" height="461" font-family="'Dialog'" font-style="normal" stroke-linejoin="miter" font-size="12px" stroke-dashoffset="0" image-rendering="auto">
  <!--Generated by ySVG 2.5-->
  <defs id="genericDefs"/>
  <g>
    <g fill="url(#linearGradient1)" text-rendering="geometricPrecision" shape-rendering="geometricPrecision" transform="matrix(1,0,0,1,-410,-136)" stroke="url(#linearGradient1)">
      <rect x="569.8775" y="246.6" clip-path="url(#clipPath2)" width="85.0449" rx="4" ry="4" height="35.6" stroke="none"/>
    </g>
    <g text-rendering="geometricPrecision" stroke-miterlimit="1.45" shape-rendering="geometricPrecision" transform="matrix(1,0,0,1,-410,-136)" stroke-linecap="butt">
      <rect x="569.8775" y="246.6" clip-path="url(#clipPath2)" fill="none" width="85.0449" rx="4" ry="4" height="35.6"/>
      <text x="592.7242" xml:space="preserve" y="261.5699" clip-path="url(#clipPath2)" font-family="sans-serif" stroke="none">Server</text>
      <text x="576.8776" xml:space="preserve" y="275.5387" clip-path="url(#clipPath2)" font-family="sans-serif" stroke="none">(Machine 0)</text>
    </g>
    <g fill="white" text-rendering="geometricPrecision" shape-rendering="geometricPrecision" transform="matrix(1,0,0,1,-410,-136)" stroke="white">
      <ellipse rx="7.4" ry="7.4" clip-path="url(#clipPath2)" cx="612.4" cy="314" stroke="none"/>
    </g>
    <g text-rendering="geometricPrecision" stroke-miterlimit="1.45" shape-rendering="geometricPrecision" transform="matrix(1,0,0,1,-410,-136)" stroke-linecap="butt">
      <ellipse rx="7.4" fill="none" ry="7.4" clip-path="url(#clipPath2)" cx="612.4" cy="314"/>
    </g>
    <g fill="url(#linearGradient2)" text-rendering="geometricPrecision" shape-rendering="geometricPrecision" transform="matrix(1,0,0,1,-410,-136)" stroke="url(#linearGradient2)">
      <rect x="454.9592" y="377" clip-path="url(#clipPath2)" width="75.6816" rx="4" ry="4" height="30" stroke="none"/>
    </g>
    <g text-rendering="geometricPrecision" stroke-miterlimit="1.45" shape-rendering="geometricPrecision" transform="matrix(1,0,0,1,-410,-136)" stroke-linecap="butt">
      <rect x="454.9592" y="377" clip-path="url(#clipPath2)" fill="none" width="75.6816" rx="4" ry="4" height="30"/>
      <text x="461.9592" xml:space="preserve" y="396.1543" clip-path="url(#clipPath2)" font-family="sans-serif" stroke="none">Machine 1</text>
    </g>
    <g fill="url(#linearGradient3)" text-rendering="geometricPrecision" shape-rendering="geometricPrecision" transform="matrix(1,0,0,1,-410,-136)" stroke="url(#linearGradient3)">
      <rect x="574.5592" y="377" clip-path="url(#clipPath2)" width="75.6816" rx="4" ry="4" height="30" stroke="none"/>
    </g>
    <g text-rendering="geometricPrecision" stroke-miterlimit="1.45" shape-rendering="geometricPrecision" transform="matrix(1,0,0,1,-410,-136)" stroke-linecap="butt">
      <rect x="574.5592" y="377" clip-path="url(#clipPath2)" fill="none" width="75.6816" rx="4" ry="4" height="30"/>
      <text x="581.5592" xml:space="preserve" y="396.1543" clip-path="url(#clipPath2)" font-family="sans-serif" stroke="none">Machine 2</text>
    </g>
    <g fill="url(#linearGradient4)" text-rendering="geometricPrecision" shape-rendering="geometricPrecision" transform="matrix(1,0,0,1,-410,-136)" stroke="url(#linearGradient4)">
      <rect x="694.1592" y="377" clip-path="url(#clipPath2)" width="75.6816" rx="4" ry="4" height="30" stroke="none"/>
    </g>
    <g text-rendering="geometricPrecision" stroke-miterlimit="1.45" shape-rendering="geometricPrecision" transform="matrix(1,0,0,1,-410,-136)" stroke-linecap="butt">
      <rect x="694.1592" y="377" clip-path="url(#clipPath2)" fill="none" width="75.6816" rx="4" ry="4" height="30"/>
      <text x="701.1592" xml:space="preserve" y="396.1543" clip-path="url(#clipPath2)" font-family="sans-serif" stroke="none">Machine 3</text>
    </g>
    <g text-rendering="geometricPrecision" shape-rendering="geometricPrecision" transform="matrix(1,0,0,1,113.655,37.1535)">
      <g clip-path="url(#clipPath3)">
        <svg xml:space="preserve" opacity="1" writing-mode="lr-tb" stop-color="rgb(0, 0, 0)" shape-rendering="auto" glyph-orientation-horizontal="0deg" color-profile="auto" lighting-color="rgb(255, 255, 255)" color="rgb(0, 0, 0)" font-weight="400" alignment-baseline="auto" font-style="normal" version="1.1" color-interpolation-filters="linearrgb" text-anchor="start" stroke-linecap="butt" color-interpolation="srgb" font-variant="normal" word-spacing="normal" fill-opacity="1" text-rendering="auto" clip-path="none" text-decoration="none" letter-spacing="normal" viewBox="0 0 40 48" glyph-orientation-vertical="auto" display="inline" font-size-adjust="none" overflow="hidden" fill="rgb(0, 0, 0)" font-stretch="normal" stroke-dasharray="none" stroke-miterlimit="4" stop-opacity="1" color-rendering="auto" font-size="12" pointer-events="visiblepainted" mask="none" direction="ltr" baseline-shift="baseline" enable-background="new 0 0 40 48" fill-rule="nonzero" image-rendering="auto" stroke-dashoffset="0" width="40px" marker-end="none" clip="auto" cursor="auto" stroke="none" filter="none" visibility="visible" kerning="auto" stroke-width="1" font-family="&quot;Arial&quot;,&quot;Helvetica&quot;,sans-serif" flood-opacity="1" clip-rule="nonzero" src="none" height="48px" unicode-bidi="normal" stroke-linejoin="miter" stroke-opacity="1" flood-color="rgb(0, 0, 0)" dominant-baseline="auto" marker-start="none" x="0px" marker-mid="none" y="0px">
<defs>
<linearGradient x1="598.2258" gradientUnits="userSpaceOnUse" x2="654.9225" y1="246.6" y2="246.6" id="linearGradient1" spreadMethod="reflect"><stop stop-opacity="1" stop-color="white" offset="0%"/><stop stop-opacity="1" stop-color="white" offset="100%"/></linearGradient><linearGradient x1="480.1864" gradientUnits="userSpaceOnUse" x2="530.6408" y1="377" y2="377" id="linearGradient2" spreadMethod="reflect"><stop stop-opacity="1" stop-color="white" offset="0%"/><stop stop-opacity="1" stop-color="white" offset="100%"/></linearGradient><linearGradient x1="599.7864" gradientUnits="userSpaceOnUse" x2="650.2408" y1="377" y2="377" id="linearGradient3" spreadMethod="reflect"><stop stop-opacity="1" stop-color="white" offset="0%"/><stop stop-opacity="1" stop-color="white" offset="100%"/></linearGradient><linearGradient x1="719.3864" gradientUnits="userSpaceOnUse" x2="769.8408" y1="377" y2="377" id="linearGradient4" spreadMethod="reflect"><stop stop-opacity="1" stop-color="white" offset="0%"/><stop stop-opacity="1" stop-color="white" offset="100%"/></linearGradient><clipPath clipPathUnits="userSpaceOnUse" id="clipPath1"><path d="M0 0 L413 0 L413 461 L0 461 L0 0 Z"/></clipPath><clipPath clipPathUnits="userSpaceOnUse" id="clipPath2"><path d="M410 136 L823 136 L823 597 L410 597 L410 136 Z"/></clipPath><clipPath clipPathUnits="userSpaceOnUse" id="clipPath3"><path d="M-113.655 -37.1535 L299.345 -37.1535 L299.345 423.8465 L-113.655 423.8465 L-113.655 -37.1535 Z"/></clipPath><clipPath clipPathUnits="userSpaceOnUse" id="clipPath4"><path d="M-182.905 -37.1535 L230.095 -37.1535 L230.095 423.8465 L-182.905 423.8465 L-182.905 -37.1535 Z"/></clipPath><clipPath clipPathUnits="userSpaceOnUse" id="clipPath5"><path d="M-252.155 -37.1535 L160.845 -37.1535 L160.845 423.8465 L-252.155 423.8465 L-252.155 -37.1535 Z"/></clipPath></defs>
<linearGradient gradientTransform="matrix(1 0 0 1 -370.2002 -614.5742)" x1="370.2002" x2="409.4502" gradientUnits="userSpaceOnUse" y1="655.0938" y2="655.0938" id="svg1.SVGID_1_">
	<stop offset="0" style="stop-color:#4D4D4D"/>
	<stop offset="0.0558" style="stop-color:#5F5F5F"/>
	<stop offset="0.2103" style="stop-color:#8D8D8D"/>
	<stop offset="0.3479" style="stop-color:#AEAEAE"/>
	<stop offset="0.4623" style="stop-color:#C2C2C2"/>
	<stop offset="0.5394" style="stop-color:#C9C9C9"/>
	<stop offset="0.6247" style="stop-color:#C5C5C5"/>
	<stop offset="0.7072" style="stop-color:#BABABA"/>
	<stop offset="0.7885" style="stop-color:#A6A6A6"/>
	<stop offset="0.869" style="stop-color:#8B8B8B"/>
	<stop offset="0.9484" style="stop-color:#686868"/>
	<stop offset="1" style="stop-color:#4D4D4D"/>
</linearGradient>
<path fill="url(#svg1.SVGID_1_)" d="M19.625,37.613C8.787,37.613,0,35.738,0,33.425v10c0,2.313,8.787,4.188,19.625,4.188  c10.839,0,19.625-1.875,19.625-4.188v-10C39.25,35.738,30.464,37.613,19.625,37.613z"/>
<linearGradient gradientTransform="matrix(1 0 0 1 -370.2002 -614.5742)" x1="370.2002" x2="409.4502" gradientUnits="userSpaceOnUse" y1="649.0938" y2="649.0938" id="svg1.SVGID_2_">
	<stop offset="0" style="stop-color:#B3B3B3"/>
	<stop offset="0.0171" style="stop-color:#B6B6B6"/>
	<stop offset="0.235" style="stop-color:#D7D7D7"/>
	<stop offset="0.4168" style="stop-color:#EBEBEB"/>
	<stop offset="0.5394" style="stop-color:#F2F2F2"/>
	<stop offset="0.6579" style="stop-color:#EEEEEE"/>
	<stop offset="0.7724" style="stop-color:#E3E3E3"/>
	<stop offset="0.8853" style="stop-color:#CFCFCF"/>
	<stop offset="0.9965" style="stop-color:#B4B4B4"/>
	<stop offset="1" style="stop-color:#B3B3B3"/>
</linearGradient>
<path fill="url(#svg1.SVGID_2_)" d="M19.625,37.613c10.839,0,19.625-1.875,19.625-4.188l-1.229-2c0,2.168-8.235,3.927-18.396,3.927  c-9.481,0-17.396-1.959-18.396-3.927l-1.229,2C0,35.738,8.787,37.613,19.625,37.613z"/>
<linearGradient gradientTransform="matrix(1 0 0 1 -370.2002 -614.5742)" x1="371.4297" x2="408.2217" gradientUnits="userSpaceOnUse" y1="646" y2="646" id="svg1.SVGID_3_">
	<stop offset="0" style="stop-color:#C9C9C9"/>
	<stop offset="1" style="stop-color:#808080"/>
</linearGradient>
<ellipse rx="18.396" fill="url(#svg1.SVGID_3_)" ry="3.926" cx="19.625" cy="31.425"/>
<linearGradient gradientTransform="matrix(1 0 0 1 -370.2002 -614.5742)" x1="370.2002" x2="409.4502" gradientUnits="userSpaceOnUse" y1="641.0938" y2="641.0938" id="svg1.SVGID_4_">
	<stop offset="0" style="stop-color:#4D4D4D"/>
	<stop offset="0.0558" style="stop-color:#5F5F5F"/>
	<stop offset="0.2103" style="stop-color:#8D8D8D"/>
	<stop offset="0.3479" style="stop-color:#AEAEAE"/>
	<stop offset="0.4623" style="stop-color:#C2C2C2"/>
	<stop offset="0.5394" style="stop-color:#C9C9C9"/>
	<stop offset="0.6247" style="stop-color:#C5C5C5"/>
	<stop offset="0.7072" style="stop-color:#BABABA"/>
	<stop offset="0.7885" style="stop-color:#A6A6A6"/>
	<stop offset="0.869" style="stop-color:#8B8B8B"/>
	<stop offset="0.9484" style="stop-color:#686868"/>
	<stop offset="1" style="stop-color:#4D4D4D"/>
</linearGradient>
<path fill="url(#svg1.SVGID_4_)" d="M19.625,23.613C8.787,23.613,0,21.738,0,19.425v10c0,2.313,8.787,4.188,19.625,4.188  c10.839,0,19.625-1.875,19.625-4.188v-10C39.25,21.738,30.464,23.613,19.625,23.613z"/>
<linearGradient gradientTransform="matrix(1 0 0 1 -370.2002 -614.5742)" x1="370.2002" x2="409.4502" gradientUnits="userSpaceOnUse" y1="635.0938" y2="635.0938" id="svg1.SVGID_5_">
	<stop offset="0" style="stop-color:#B3B3B3"/>
	<stop offset="0.0171" style="stop-color:#B6B6B6"/>
	<stop offset="0.235" style="stop-color:#D7D7D7"/>
	<stop offset="0.4168" style="stop-color:#EBEBEB"/>
	<stop offset="0.5394" style="stop-color:#F2F2F2"/>
	<stop offset="0.6579" style="stop-color:#EEEEEE"/>
	<stop offset="0.7724" style="stop-color:#E3E3E3"/>
	<stop offset="0.8853" style="stop-color:#CFCFCF"/>
	<stop offset="0.9965" style="stop-color:#B4B4B4"/>
	<stop offset="1" style="stop-color:#B3B3B3"/>
</linearGradient>
<path fill="url(#svg1.SVGID_5_)" d="M19.625,23.613c10.839,0,19.625-1.875,19.625-4.188l-1.229-2c0,2.168-8.235,3.926-18.396,3.926  c-9.481,0-17.396-1.959-18.396-3.926l-1.229,2C0,21.738,8.787,23.613,19.625,23.613z"/>
<linearGradient gradientTransform="matrix(1 0 0 1 -370.2002 -614.5742)" x1="371.4297" x2="408.2217" gradientUnits="userSpaceOnUse" y1="632" y2="632" id="svg1.SVGID_6_">
	<stop offset="0" style="stop-color:#C9C9C9"/>
	<stop offset="1" style="stop-color:#808080"/>
</linearGradient>
<ellipse rx="18.396" fill="url(#svg1.SVGID_6_)" ry="3.926" cx="19.625" cy="17.426"/>
<linearGradient gradientTransform="matrix(1 0 0 1 -370.2002 -614.5742)" x1="370.2002" x2="409.4502" gradientUnits="userSpaceOnUse" y1="627.5938" y2="627.5938" id="svg1.SVGID_7_">
	<stop offset="0" style="stop-color:#4D4D4D"/>
	<stop offset="0.0558" style="stop-color:#5F5F5F"/>
	<stop offset="0.2103" style="stop-color:#8D8D8D"/>
	<stop offset="0.3479" style="stop-color:#AEAEAE"/>
	<stop offset="0.4623" style="stop-color:#C2C2C2"/>
	<stop offset="0.5394" style="stop-color:#C9C9C9"/>
	<stop offset="0.6247" style="stop-color:#C5C5C5"/>
	<stop offset="0.7072" style="stop-color:#BABABA"/>
	<stop offset="0.7885" style="stop-color:#A6A6A6"/>
	<stop offset="0.869" style="stop-color:#8B8B8B"/>
	<stop offset="0.9484" style="stop-color:#686868"/>
	<stop offset="1" style="stop-color:#4D4D4D"/>
</linearGradient>
<path fill="url(#svg1.SVGID_7_)" d="M19.625,10.113C8.787,10.113,0,8.238,0,5.925v10c0,2.313,8.787,4.188,19.625,4.188  c10.839,0,19.625-1.875,19.625-4.188v-10C39.25,8.238,30.464,10.113,19.625,10.113z"/>
<linearGradient gradientTransform="matrix(1 0 0 1 -370.2002 -614.5742)" x1="370.2002" x2="409.4502" gradientUnits="userSpaceOnUse" y1="621.5938" y2="621.5938" id="svg1.SVGID_8_">
	<stop offset="0" style="stop-color:#B3B3B3"/>
	<stop offset="0.0171" style="stop-color:#B6B6B6"/>
	<stop offset="0.235" style="stop-color:#D7D7D7"/>
	<stop offset="0.4168" style="stop-color:#EBEBEB"/>
	<stop offset="0.5394" style="stop-color:#F2F2F2"/>
	<stop offset="0.6579" style="stop-color:#EEEEEE"/>
	<stop offset="0.7724" style="stop-color:#E3E3E3"/>
	<stop offset="0.8853" style="stop-color:#CFCFCF"/>
	<stop offset="0.9965" style="stop-color:#B4B4B4"/>
	<stop offset="1" style="stop-color:#B3B3B3"/>
</linearGradient>
<path fill="url(#svg1.SVGID_8_)" d="M19.625,10.113c10.839,0,19.625-1.875,19.625-4.188l-1.229-2c0,2.168-8.235,3.926-18.396,3.926  c-9.481,0-17.396-1.959-18.396-3.926L0,5.925C0,8.238,8.787,10.113,19.625,10.113z"/>
<linearGradient gradientTransform="matrix(1 0 0 1 -370.2002 -614.5742)" x1="371.4297" x2="408.2217" gradientUnits="userSpaceOnUse" y1="618.5" y2="618.5" id="svg1.SVGID_9_">
	<stop offset="0" style="stop-color:#C9C9C9"/>
	<stop offset="1" style="stop-color:#808080"/>
</linearGradient>
<ellipse rx="18.396" fill="url(#svg1.SVGID_9_)" ry="3.926" cx="19.625" cy="3.926"/>
<path fill="#FFFFFF" d="M31.291,46.792c0,0-4.313,0.578-7.249,0.694  C20.917,47.613,15,47.613,15,47.613l-2.443-10.279l-0.119-2.283l-1.231-1.842L9.789,23.024l-0.082-0.119L9.3,20.715l-1.45-1.44  L5.329,8.793c0,0,5.296,0.882,7.234,1.07s8.375,0.25,8.375,0.25l3,9.875l-0.25,1.313l1.063,2.168l2.312,9.644l-0.375,1.875  l1.627,2.193L31.291,46.792z" enable-background="new    " opacity="0.24"/>
</svg>
      </g>
    </g>
    <g text-rendering="geometricPrecision" stroke-miterlimit="1.45" shape-rendering="geometricPrecision" font-family="sans-serif" transform="matrix(1,0,0,1,-410,-136)" stroke-linecap="butt">
      <text x="531.989" xml:space="preserve" y="164.3234" clip-path="url(#clipPath2)" stroke="none">TS1</text>
    </g>
    <g text-rendering="geometricPrecision" shape-rendering="geometricPrecision" transform="matrix(1,0,0,1,182.905,37.1535)">
      <g clip-path="url(#clipPath4)">
        <svg xml:space="preserve" opacity="1" writing-mode="lr-tb" stop-color="rgb(0, 0, 0)" shape-rendering="auto" glyph-orientation-horizontal="0deg" color-profile="auto" lighting-color="rgb(255, 255, 255)" color="rgb(0, 0, 0)" font-weight="400" alignment-baseline="auto" font-style="normal" version="1.1" color-interpolation-filters="linearrgb" text-anchor="start" stroke-linecap="butt" color-interpolation="srgb" font-variant="normal" word-spacing="normal" fill-opacity="1" text-rendering="auto" clip-path="none" text-decoration="none" letter-spacing="normal" viewBox="0 0 40 48" glyph-orientation-vertical="auto" display="inline" font-size-adjust="none" overflow="hidden" fill="rgb(0, 0, 0)" font-stretch="normal" stroke-dasharray="none" stroke-miterlimit="4" stop-opacity="1" color-rendering="auto" font-size="12" pointer-events="visiblepainted" mask="none" direction="ltr" baseline-shift="baseline" enable-background="new 0 0 40 48" fill-rule="nonzero" image-rendering="auto" stroke-dashoffset="0" width="40px" marker-end="none" clip="auto" cursor="auto" stroke="none" filter="none" visibility="visible" kerning="auto" stroke-width="1" font-family="&quot;Arial&quot;,&quot;Helvetica&quot;,sans-serif" flood-opacity="1" clip-rule="nonzero" src="none" height="48px" unicode-bidi="normal" stroke-linejoin="miter" stroke-opacity="1" flood-color="rgb(0, 0, 0)" dominant-baseline="auto" marker-start="none" x="0px" marker-mid="none" y="0px">
<defs>
</defs>
<linearGradient gradientTransform="matrix(1 0 0 1 -370.2002 -614.5742)" x1="370.2002" x2="409.4502" gradientUnits="userSpaceOnUse" y1="655.0938" y2="655.0938" id="svg2.SVGID_1_">
	<stop offset="0" style="stop-color:#4D4D4D"/>
	<stop offset="0.0558" style="stop-color:#5F5F5F"/>
	<stop offset="0.2103" style="stop-color:#8D8D8D"/>
	<stop offset="0.3479" style="stop-color:#AEAEAE"/>
	<stop offset="0.4623" style="stop-color:#C2C2C2"/>
	<stop offset="0.5394" style="stop-color:#C9C9C9"/>
	<stop offset="0.6247" style="stop-color:#C5C5C5"/>
	<stop offset="0.7072" style="stop-color:#BABABA"/>
	<stop offset="0.7885" style="stop-color:#A6A6A6"/>
	<stop offset="0.869" style="stop-color:#8B8B8B"/>
	<stop offset="0.9484" style="stop-color:#686868"/>
	<stop offset="1" style="stop-color:#4D4D4D"/>
</linearGradient>
<path fill="url(#svg2.SVGID_1_)" d="M19.625,37.613C8.787,37.613,0,35.738,0,33.425v10c0,2.313,8.787,4.188,19.625,4.188  c10.839,0,19.625-1.875,19.625-4.188v-10C39.25,35.738,30.464,37.613,19.625,37.613z"/>
<linearGradient gradientTransform="matrix(1 0 0 1 -370.2002 -614.5742)" x1="370.2002" x2="409.4502" gradientUnits="userSpaceOnUse" y1="649.0938" y2="649.0938" id="svg2.SVGID_2_">
	<stop offset="0" style="stop-color:#B3B3B3"/>
	<stop offset="0.0171" style="stop-color:#B6B6B6"/>
	<stop offset="0.235" style="stop-color:#D7D7D7"/>
	<stop offset="0.4168" style="stop-color:#EBEBEB"/>
	<stop offset="0.5394" style="stop-color:#F2F2F2"/>
	<stop offset="0.6579" style="stop-color:#EEEEEE"/>
	<stop offset="0.7724" style="stop-color:#E3E3E3"/>
	<stop offset="0.8853" style="stop-color:#CFCFCF"/>
	<stop offset="0.9965" style="stop-color:#B4B4B4"/>
	<stop offset="1" style="stop-color:#B3B3B3"/>
</linearGradient>
<path fill="url(#svg2.SVGID_2_)" d="M19.625,37.613c10.839,0,19.625-1.875,19.625-4.188l-1.229-2c0,2.168-8.235,3.927-18.396,3.927  c-9.481,0-17.396-1.959-18.396-3.927l-1.229,2C0,35.738,8.787,37.613,19.625,37.613z"/>
<linearGradient gradientTransform="matrix(1 0 0 1 -370.2002 -614.5742)" x1="371.4297" x2="408.2217" gradientUnits="userSpaceOnUse" y1="646" y2="646" id="svg2.SVGID_3_">
	<stop offset="0" style="stop-color:#C9C9C9"/>
	<stop offset="1" style="stop-color:#808080"/>
</linearGradient>
<ellipse rx="18.396" fill="url(#svg2.SVGID_3_)" ry="3.926" cx="19.625" cy="31.425"/>
<linearGradient gradientTransform="matrix(1 0 0 1 -370.2002 -614.5742)" x1="370.2002" x2="409.4502" gradientUnits="userSpaceOnUse" y1="641.0938" y2="641.0938" id="svg2.SVGID_4_">
	<stop offset="0" style="stop-color:#4D4D4D"/>
	<stop offset="0.0558" style="stop-color:#5F5F5F"/>
	<stop offset="0.2103" style="stop-color:#8D8D8D"/>
	<stop offset="0.3479" style="stop-color:#AEAEAE"/>
	<stop offset="0.4623" style="stop-color:#C2C2C2"/>
	<stop offset="0.5394" style="stop-color:#C9C9C9"/>
	<stop offset="0.6247" style="stop-color:#C5C5C5"/>
	<stop offset="0.7072" style="stop-color:#BABABA"/>
	<stop offset="0.7885" style="stop-color:#A6A6A6"/>
	<stop offset="0.869" style="stop-color:#8B8B8B"/>
	<stop offset="0.9484" style="stop-color:#686868"/>
	<stop offset="1" style="stop-color:#4D4D4D"/>
</linearGradient>
<path fill="url(#svg2.SVGID_4_)" d="M19.625,23.613C8.787,23.613,0,21.738,0,19.425v10c0,2.313,8.787,4.188,19.625,4.188  c10.839,0,19.625-1.875,19.625-4.188v-10C39.25,21.738,30.464,23.613,19.625,23.613z"/>
<linearGradient gradientTransform="matrix(1 0 0 1 -370.2002 -614.5742)" x1="370.2002" x2="409.4502" gradientUnits="userSpaceOnUse" y1="635.0938" y2="635.0938" id="svg2.SVGID_5_">
	<stop offset="0" style="stop-color:#B3B3B3"/>
	<stop offset="0.0171" style="stop-color:#B6B6B6"/>
	<stop offset="0.235" style="stop-color:#D7D7D7"/>
	<stop offset="0.4168" style="stop-color:#EBEBEB"/>
	<stop offset="0.5394" style="stop-color:#F2F2F2"/>
	<stop offset="0.6579" style="stop-color:#EEEEEE"/>
	<stop offset="0.7724" style="stop-color:#E3E3E3"/>
	<stop offset="0.8853" style="stop-color:#CFCFCF"/>
	<stop offset="0.9965" style="stop-color:#B4B4B4"/>
	<stop offset="1" style="stop-color:#B3B3B3"/>
</linearGradient>
<path fill="url(#svg2.SVGID_5_)" d="M19.625,23.613c10.839,0,19.625-1.875,19.625-4.188l-1.229-2c0,2.168-8.235,3.926-18.396,3.926  c-9.481,0-17.396-1.959-18.396-3.926l-1.229,2C0,21.738,8.787,23.613,19.625,23.613z"/>
<linearGradient gradientTransform="matrix(1 0 0 1 -370.2002 -614.5742)" x1="371.4297" x2="408.2217" gradientUnits="userSpaceOnUse" y1="632" y2="632" id="svg2.SVGID_6_">
	<stop offset="0" style="stop-color:#C9C9C9"/>
	<stop offset="1" style="stop-color:#808080"/>
</linearGradient>
<ellipse rx="18.396" fill="url(#svg2.SVGID_6_)" ry="3.926" cx="19.625" cy="17.426"/>
<linearGradient gradientTransform="matrix(1 0 0 1 -370.2002 -614.5742)" x1="370.2002" x2="409.4502" gradientUnits="userSpaceOnUse" y1="627.5938" y2="627.5938" id="svg2.SVGID_7_">
	<stop offset="0" style="stop-color:#4D4D4D"/>
	<stop offset="0.0558" style="stop-color:#5F5F5F"/>
	<stop offset="0.2103" style="stop-color:#8D8D8D"/>
	<stop offset="0.3479" style="stop-color:#AEAEAE"/>
	<stop offset="0.4623" style="stop-color:#C2C2C2"/>
	<stop offset="0.5394" style="stop-color:#C9C9C9"/>
	<stop offset="0.6247" style="stop-color:#C5C5C5"/>
	<stop offset="0.7072" style="stop-color:#BABABA"/>
	<stop offset="0.7885" style="stop-color:#A6A6A6"/>
	<stop offset="0.869" style="stop-color:#8B8B8B"/>
	<stop offset="0.9484" style="stop-color:#686868"/>
	<stop offset="1" style="stop-color:#4D4D4D"/>
</linearGradient>
<path fill="url(#svg2.SVGID_7_)" d="M19.625,10.113C8.787,10.113,0,8.238,0,5.925v10c0,2.313,8.787,4.188,19.625,4.188  c10.839,0,19.625-1.875,19.625-4.188v-10C39.25,8.238,30.464,10.113,19.625,10.113z"/>
<linearGradient gradientTransform="matrix(1 0 0 1 -370.2002 -614.5742)" x1="370.2002" x2="409.4502" gradientUnits="userSpaceOnUse" y1="621.5938" y2="621.5938" id="svg2.SVGID_8_">
	<stop offset="0" style="stop-color:#B3B3B3"/>
	<stop offset="0.0171" style="stop-color:#B6B6B6"/>
	<stop offset="0.235" style="stop-color:#D7D7D7"/>
	<stop offset="0.4168" style="stop-color:#EBEBEB"/>
	<stop offset="0.5394" style="stop-color:#F2F2F2"/>
	<stop offset="0.6579" style="stop-color:#EEEEEE"/>
	<stop offset="0.7724" style="stop-color:#E3E3E3"/>
	<stop offset="0.8853" style="stop-color:#CFCFCF"/>
	<stop offset="0.9965" style="stop-color:#B4B4B4"/>
	<stop offset="1" style="stop-color:#B3B3B3"/>
</linearGradient>
<path fill="url(#svg2.SVGID_8_)" d="M19.625,10.113c10.839,0,19.625-1.875,19.625-4.188l-1.229-2c0,2.168-8.235,3.926-18.396,3.926  c-9.481,0-17.396-1.959-18.396-3.926L0,5.925C0,8.238,8.787,10.113,19.625,10.113z"/>
<linearGradient gradientTransform="matrix(1 0 0 1 -370.2002 -614.5742)" x1="371.4297" x2="408.2217" gradientUnits="userSpaceOnUse" y1="618.5" y2="618.5" id="svg2.SVGID_9_">
	<stop offset="0" style="stop-color:#C9C9C9"/>
	<stop offset="1" style="stop-color:#808080"/>
</linearGradient>
<ellipse rx="18.396" fill="url(#svg2.SVGID_9_)" ry="3.926" cx="19.625" cy="3.926"/>
<path fill="#FFFFFF" d="M31.291,46.792c0,0-4.313,0.578-7.249,0.694  C20.917,47.613,15,47.613,15,47.613l-2.443-10.279l-0.119-2.283l-1.231-1.842L9.789,23.024l-0.082-0.119L9.3,20.715l-1.45-1.44  L5.329,8.793c0,0,5.296,0.882,7.234,1.07s8.375,0.25,8.375,0.25l3,9.875l-0.25,1.313l1.063,2.168l2.312,9.644l-0.375,1.875  l1.627,2.193L31.291,46.792z" enable-background="new    " opacity="0.24"/>
</svg>
      </g>
    </g>
    <g text-rendering="geometricPrecision" stroke-miterlimit="1.45" shape-rendering="geometricPrecision" font-family="sans-serif" transform="matrix(1,0,0,1,-410,-136)" stroke-linecap="butt">
      <text x="603.573" xml:space="preserve" y="164.3234" clip-path="url(#clipPath2)" stroke="none">TS2</text>
    </g>
    <g text-rendering="geometricPrecision" shape-rendering="geometricPrecision" transform="matrix(1,0,0,1,252.155,37.1535)">
      <g clip-path="url(#clipPath5)">
        <svg xml:space="preserve" opacity="1" writing-mode="lr-tb" stop-color="rgb(0, 0, 0)" shape-rendering="auto" glyph-orientation-horizontal="0deg" color-profile="auto" lighting-color="rgb(255, 255, 255)" color="rgb(0, 0, 0)" font-weight="400" alignment-baseline="auto" font-style="normal" version="1.1" color-interpolation-filters="linearrgb" text-anchor="start" stroke-linecap="butt" color-interpolation="srgb" font-variant="normal" word-spacing="normal" fill-opacity="1" text-rendering="auto" clip-path="none" text-decoration="none" letter-spacing="normal" viewBox="0 0 40 48" glyph-orientation-vertical="auto" display="inline" font-size-adjust="none" overflow="hidden" fill="rgb(0, 0, 0)" font-stretch="normal" stroke-dasharray="none" stroke-miterlimit="4" stop-opacity="1" color-rendering="auto" font-size="12" pointer-events="visiblepainted" mask="none" direction="ltr" baseline-shift="baseline" enable-background="new 0 0 40 48" fill-rule="nonzero" image-rendering="auto" stroke-dashoffset="0" width="40px" marker-end="none" clip="auto" cursor="auto" stroke="none" filter="none" visibility="visible" kerning="auto" stroke-width="1" font-family="&quot;Arial&quot;,&quot;Helvetica&quot;,sans-serif" flood-opacity="1" clip-rule="nonzero" src="none" height="48px" unicode-bidi="normal" stroke-linejoin="miter" stroke-opacity="1" flood-color="rgb(0, 0, 0)" dominant-baseline="auto" marker-start="none" x="0px" marker-mid="none" y="0px">
<defs>
</defs>
<linearGradient gradientTransform="matrix(1 0 0 1 -370.2002 -614.5742)" x1="370.2002" x2="409.4502" gradientUnits="userSpaceOnUse" y1="655.0938" y2="655.0938" id="svg3.SVGID_1_">
	<stop offset="0" style="stop-color:#4D4D4D"/>
	<stop offset="0.0558" style="stop-color:#5F5F5F"/>
	<stop offset="0.2103" style="stop-color:#8D8D8D"/>
	<stop offset="0.3479" style="stop-color:#AEAEAE"/>
	<stop offset="0.4623" style="stop-color:#C2C2C2"/>
	<stop offset="0.5394" style="stop-color:#C9C9C9"/>
	<stop offset="0.6247" style="stop-color:#C5C5C5"/>
	<stop offset="0.7072" style="stop-color:#BABABA"/>
	<stop offset="0.7885" style="stop-color:#A6A6A6"/>
	<stop offset="0.869" style="stop-color:#8B8B8B"/>
	<stop offset="0.9484" style="stop-color:#686868"/>
	<stop offset="1" style="stop-color:#4D4D4D"/>
</linearGradient>
<path fill="url(#svg3.SVGID_1_)" d="M19.625,37.613C8.787,37.613,0,35.738,0,33.425v10c0,2.313,8.787,4.188,19.625,4.188  c10.839,0,19.625-1.875,19.625-4.188v-10C39.25,35.738,30.464,37.613,19.625,37.613z"/>
<linearGradient gradientTransform="matrix(1 0 0 1 -370.2002 -614.5742)" x1="370.2002" x2="409.4502" gradientUnits="userSpaceOnUse" y1="649.0938" y2="649.0938" id="svg3.SVGID_2_">
	<stop offset="0" style="stop-color:#B3B3B3"/>
	<stop offset="0.0171" style="stop-color:#B6B6B6"/>
	<stop offset="0.235" style="stop-color:#D7D7D7"/>
	<stop offset="0.4168" style="stop-color:#EBEBEB"/>
	<stop offset="0.5394" style="stop-color:#F2F2F2"/>
	<stop offset="0.6579" style="stop-color:#EEEEEE"/>
	<stop offset="0.7724" style="stop-color:#E3E3E3"/>
	<stop offset="0.8853" style="stop-color:#CFCFCF"/>
	<stop offset="0.9965" style="stop-color:#B4B4B4"/>
	<stop offset="1" style="stop-color:#B3B3B3"/>
</linearGradient>
<path fill="url(#svg3.SVGID_2_)" d="M19.625,37.613c10.839,0,19.625-1.875,19.625-4.188l-1.229-2c0,2.168-8.235,3.927-18.396,3.927  c-9.481,0-17.396-1.959-18.396-3.927l-1.229,2C0,35.738,8.787,37.613,19.625,37.613z"/>
<linearGradient gradientTransform="matrix(1 0 0 1 -370.2002 -614.5742)" x1="371.4297" x2="408.2217" gradientUnits="userSpaceOnUse" y1="646" y2="646" id="svg3.SVGID_3_">
	<stop offset="0" style="stop-color:#C9C9C9"/>
	<stop offset="1" style="stop-color:#808080"/>
</linearGradient>
<ellipse rx="18.396" fill="url(#svg3.SVGID_3_)" ry="3.926" cx="19.625" cy="31.425"/>
<linearGradient gradientTransform="matrix(1 0 0 1 -370.2002 -614.5742)" x1="370.2002" x2="409.4502" gradientUnits="userSpaceOnUse" y1="641.0938" y2="641.0938" id="svg3.SVGID_4_">
	<stop offset="0" style="stop-color:#4D4D4D"/>
	<stop offset="0.0558" style="stop-color:#5F5F5F"/>
	<stop offset="0.2103" style="stop-color:#8D8D8D"/>
	<stop offset="0.3479" style="stop-color:#AEAEAE"/>
	<stop offset="0.4623" style="stop-color:#C2C2C2"/>
	<stop offset="0.5394" style="stop-color:#C9C9C9"/>
	<stop offset="0.6247" style="stop-color:#C5C5C5"/>
	<stop offset="0.7072" style="stop-color:#BABABA"/>
	<stop offset="0.7885" style="stop-color:#A6A6A6"/>
	<stop offset="0.869" style="stop-color:#8B8B8B"/>
	<stop offset="0.9484" style="stop-color:#686868"/>
	<stop offset="1" style="stop-color:#4D4D4D"/>
</linearGradient>
<path fill="url(#svg3.SVGID_4_)" d="M19.625,23.613C8.787,23.613,0,21.738,0,19.425v10c0,2.313,8.787,4.188,19.625,4.188  c10.839,0,19.625-1.875,19.625-4.188v-10C39.25,21.738,30.464,23.613,19.625,23.613z"/>
<linearGradient gradientTransform="matrix(1 0 0 1 -370.2002 -614.5742)" x1="370.2002" x2="409.4502" gradientUnits="userSpaceOnUse" y1="635.0938" y2="635.0938" id="svg3.SVGID_5_">
	<stop offset="0" style="stop-color:#B3B3B3"/>
	<stop offset="0.0171" style="stop-color:#B6B6B6"/>
	<stop offset="0.235" style="stop-color:#D7D7D7"/>
	<stop offset="0.4168" style="stop-color:#EBEBEB"/>
	<stop offset="0.5394" style="stop-color:#F2F2F2"/>
	<stop offset="0.6579" style="stop-color:#EEEEEE"/>
	<stop offset="0.7724" style="stop-color:#E3E3E3"/>
	<stop offset="0.8853" style="stop-color:#CFCFCF"/>
	<stop offset="0.9965" style="stop-color:#B4B4B4"/>
	<stop offset="1" style="stop-color:#B3B3B3"/>
</linearGradient>
<path fill="url(#svg3.SVGID_5_)" d="M19.625,23.613c10.839,0,19.625-1.875,19.625-4.188l-1.229-2c0,2.168-8.235,3.926-18.396,3.926  c-9.481,0-17.396-1.959-18.396-3.926l-1.229,2C0,21.738,8.787,23.613,19.625,23.613z"/>
<linearGradient gradientTransform="matrix(1 0 0 1 -370.2002 -614.5742)" x1="371.4297" x2="408.2217" gradientUnits="userSpaceOnUse" y1="632" y2="632" id="svg3.SVGID_6_">
	<stop offset="0" style="stop-color:#C9C9C9"/>
	<stop offset="1" style="stop-color:#808080"/>
</linearGradient>
<ellipse rx="18.396" fill="url(#svg3.SVGID_6_)" ry="3.926" cx="19.625" cy="17.426"/>
<linearGradient gradientTransform="matrix(1 0 0 1 -370.2002 -614.5742)" x1="370.2002" x2="409.4502" gradientUnits="userSpaceOnUse" y1="627.5938" y2="627.5938" id="svg3.SVGID_7_">
	<stop offset="0" style="stop-color:#4D4D4D"/>
	<stop offset="0.0558" style="stop-color:#5F5F5F"/>
	<stop offset="0.2103" style="stop-color:#8D8D8D"/>
	<stop offset="0.3479" style="stop-color:#AEAEAE"/>
	<stop offset="0.4623" style="stop-color:#C2C2C2"/>
	<stop offset="0.5394" style="stop-color:#C9C9C9"/>
	<stop offset="0.6247" style="stop-color:#C5C5C5"/>
	<stop offset="0.7072" style="stop-color:#BABABA"/>
	<stop offset="0.7885" style="stop-color:#A6A6A6"/>
	<stop offset="0.869" style="stop-color:#8B8B8B"/>
	<stop offset="0.9484" style="stop-color:#686868"/>
	<stop offset="1" style="stop-color:#4D4D4D"/>
</linearGradient>
<path fill="url(#svg3.SVGID_7_)" d="M19.625,10.113C8.787,10.113,0,8.238,0,5.925v10c0,2.313,8.787,4.188,19.625,4.188  c10.839,0,19.625-1.875,19.625-4.188v-10C39.25,8.238,30.464,10.113,19.625,10.113z"/>
<linearGradient gradientTransform="matrix(1 0 0 1 -370.2002 -614.5742)" x1="370.2002" x2="409.4502" gradientUnits="userSpaceOnUse" y1="621.5938" y2="621.5938" id="svg3.SVGID_8_">
	<stop offset="0" style="stop-color:#B3B3B3"/>
	<stop offset="0.0171" style="stop-color:#B6B6B6"/>
	<stop offset="0.235" style="stop-color:#D7D7D7"/>
	<stop offset="0.4168" style="stop-color:#EBEBEB"/>
	<stop offset="0.5394" style="stop-color:#F2F2F2"/>
	<stop offset="0.6579" style="stop-color:#EEEEEE"/>
	<stop offset="0.7724" style="stop-color:#E3E3E3"/>
	<stop offset="0.8853" style="stop-color:#CFCFCF"/>
	<stop offset="0.9965" style="stop-color:#B4B4B4"/>
	<stop offset="1" style="stop-color:#B3B3B3"/>
</linearGradient>
<path fill="url(#svg3.SVGID_8_)" d="M19.625,10.113c10.839,0,19.625-1.875,19.625-4.188l-1.229-2c0,2.168-8.235,3.926-18.396,3.926  c-9.481,0-17.396-1.959-18.396-3.926L0,5.925C0,8.238,8.787,10.113,19.625,10.113z"/>
<linearGradient gradientTransform="matrix(1 0 0 1 -370.2002 -614.5742)" x1="371.4297" x2="408.2217" gradientUnits="userSpaceOnUse" y1="618.5" y2="618.5" id="svg3.SVGID_9_">
	<stop offset="0" style="stop-color:#C9C9C9"/>
	<stop offset="1" style="stop-color:#808080"/>
</linearGradient>
<ellipse rx="18.396" fill="url(#svg3.SVGID_9_)" ry="3.926" cx="19.625" cy="3.926"/>
<path fill="#FFFFFF" d="M31.291,46.792c0,0-4.313,0.578-7.249,0.694  C20.917,47.613,15,47.613,15,47.613l-2.443-10.279l-0.119-2.283l-1.231-1.842L9.789,23.024l-0.082-0.119L9.3,20.715l-1.45-1.44  L5.329,8.793c0,0,5.296,0.882,7.234,1.07s8.375,0.25,8.375,0.25l3,9.875l-0.25,1.313l1.063,2.168l2.312,9.644l-0.375,1.875  l1.627,2.193L31.291,46.792z" enable-background="new    " opacity="0.24"/>
</svg>
      </g>
    </g>
    <g text-rendering="geometricPrecision" stroke-miterlimit="1.45" shape-rendering="geometricPrecision" font-family="sans-serif" transform="matrix(1,0,0,1,-410,-136)" stroke-linecap="butt">
      <text x="672.823" xml:space="preserve" y="164.3234" clip-path="url(#clipPath2)" stroke="none">TS3</text>
    </g>
    <g fill="white" text-rendering="geometricPrecision" shape-rendering="geometricPrecision" transform="matrix(1,0,0,1,-410,-136)" stroke="white">
      <rect x="454.9592" width="314.8816" height="30" y="428.68" clip-path="url(#clipPath2)" stroke="none"/>
    </g>
    <g text-rendering="geometricPrecision" stroke-miterlimit="1.45" stroke-dasharray="6,2" shape-rendering="geometricPrecision" transform="matrix(1,0,0,1,-410,-136)" stroke-linecap="butt">
      <rect fill="none" x="454.9592" width="314.8816" height="30" y="428.68" clip-path="url(#clipPath2)"/>
      <text x="538.6862" y="447.8343" clip-path="url(#clipPath2)" font-family="sans-serif" stroke-dasharray="none" stroke="none" xml:space="preserve">Distributed Environment</text>
    </g>
    <g fill="white" text-rendering="geometricPrecision" shape-rendering="geometricPrecision" transform="matrix(1,0,0,1,-410,-136)" stroke="white">
      <rect x="454.9592" width="75.6816" height="30" y="480.36" clip-path="url(#clipPath2)" stroke="none"/>
    </g>
    <g text-rendering="geometricPrecision" stroke-miterlimit="1.45" shape-rendering="geometricPrecision" transform="matrix(1,0,0,1,-410,-136)" stroke-linecap="butt">
      <rect fill="none" x="454.9592" width="75.6816" height="30" y="480.36" clip-path="url(#clipPath2)"/>
      <text x="465.5891" xml:space="preserve" y="499.5143" clip-path="url(#clipPath2)" font-family="sans-serif" stroke="none">D. Env. 1</text>
    </g>
    <g fill="white" text-rendering="geometricPrecision" shape-rendering="geometricPrecision" transform="matrix(1,0,0,1,-410,-136)" stroke="white">
      <rect x="574.5592" width="75.6816" height="30" y="480.36" clip-path="url(#clipPath2)" stroke="none"/>
    </g>
    <g text-rendering="geometricPrecision" stroke-miterlimit="1.45" shape-rendering="geometricPrecision" transform="matrix(1,0,0,1,-410,-136)" stroke-linecap="butt">
      <rect fill="none" x="574.5592" width="75.6816" height="30" y="480.36" clip-path="url(#clipPath2)"/>
      <text x="585.1891" xml:space="preserve" y="499.5143" clip-path="url(#clipPath2)" font-family="sans-serif" stroke="none">D. Env. 2</text>
    </g>
    <g fill="white" text-rendering="geometricPrecision" shape-rendering="geometricPrecision" transform="matrix(1,0,0,1,-410,-136)" stroke="white">
      <rect x="694.1592" width="75.6816" height="30" y="480.36" clip-path="url(#clipPath2)" stroke="none"/>
    </g>
    <g text-rendering="geometricPrecision" stroke-miterlimit="1.45" shape-rendering="geometricPrecision" transform="matrix(1,0,0,1,-410,-136)" stroke-linecap="butt">
      <rect fill="none" x="694.1592" width="75.6816" height="30" y="480.36" clip-path="url(#clipPath2)"/>
      <text x="704.7891" xml:space="preserve" y="499.5143" clip-path="url(#clipPath2)" font-family="sans-serif" stroke="none">D. Env. 3</text>
    </g>
    <g fill="white" text-rendering="geometricPrecision" shape-rendering="geometricPrecision" transform="matrix(1,0,0,1,-410,-136)" stroke="white">
      <ellipse rx="30.4844" ry="15" clip-path="url(#clipPath2)" cx="456.08" cy="566.4" stroke="none"/>
    </g>
    <g text-rendering="geometricPrecision" stroke-miterlimit="1.45" shape-rendering="geometricPrecision" transform="matrix(1,0,0,1,-410,-136)" stroke-linecap="butt">
      <ellipse rx="30.4844" fill="none" ry="15" clip-path="url(#clipPath2)" cx="456.08" cy="566.4"/>
      <text x="432.5956" xml:space="preserve" y="570.5543" clip-path="url(#clipPath2)" font-family="sans-serif" stroke="none">Agent 1</text>
    </g>
    <g fill="white" text-rendering="geometricPrecision" shape-rendering="geometricPrecision" transform="matrix(1,0,0,1,-410,-136)" stroke="white">
      <ellipse rx="30.4844" ry="15" clip-path="url(#clipPath2)" cx="530.3156" cy="566.4" stroke="none"/>
    </g>
    <g text-rendering="geometricPrecision" stroke-miterlimit="1.45" shape-rendering="geometricPrecision" transform="matrix(1,0,0,1,-410,-136)" stroke-linecap="butt">
      <ellipse rx="30.4844" fill="none" ry="15" clip-path="url(#clipPath2)" cx="530.3156" cy="566.4"/>
      <text x="506.8312" xml:space="preserve" y="570.5543" clip-path="url(#clipPath2)" font-family="sans-serif" stroke="none">Agent 2</text>
    </g>
    <g fill="white" text-rendering="geometricPrecision" shape-rendering="geometricPrecision" transform="matrix(1,0,0,1,-410,-136)" stroke="white">
      <ellipse rx="30.4844" ry="15" clip-path="url(#clipPath2)" cx="612.4" cy="566.4" stroke="none"/>
    </g>
    <g text-rendering="geometricPrecision" stroke-miterlimit="1.45" shape-rendering="geometricPrecision" transform="matrix(1,0,0,1,-410,-136)" stroke-linecap="butt">
      <ellipse rx="30.4844" fill="none" ry="15" clip-path="url(#clipPath2)" cx="612.4" cy="566.4"/>
      <text x="588.9156" xml:space="preserve" y="570.5543" clip-path="url(#clipPath2)" font-family="sans-serif" stroke="none">Agent 3</text>
    </g>
    <g fill="white" text-rendering="geometricPrecision" shape-rendering="geometricPrecision" transform="matrix(1,0,0,1,-410,-136)" stroke="white">
      <ellipse rx="30.4844" ry="15" clip-path="url(#clipPath2)" cx="694.4844" cy="566.4" stroke="none"/>
    </g>
    <g text-rendering="geometricPrecision" stroke-miterlimit="1.45" shape-rendering="geometricPrecision" transform="matrix(1,0,0,1,-410,-136)" stroke-linecap="butt">
      <ellipse rx="30.4844" fill="none" ry="15" clip-path="url(#clipPath2)" cx="694.4844" cy="566.4"/>
      <text x="671" xml:space="preserve" y="570.5543" clip-path="url(#clipPath2)" font-family="sans-serif" stroke="none">Agent 4</text>
    </g>
    <g fill="white" text-rendering="geometricPrecision" shape-rendering="geometricPrecision" transform="matrix(1,0,0,1,-410,-136)" stroke="white">
      <ellipse rx="30.4844" ry="15" clip-path="url(#clipPath2)" cx="776.5688" cy="566.4" stroke="none"/>
    </g>
    <g text-rendering="geometricPrecision" stroke-miterlimit="1.45" shape-rendering="geometricPrecision" transform="matrix(1,0,0,1,-410,-136)" stroke-linecap="butt">
      <ellipse rx="30.4844" fill="none" ry="15" clip-path="url(#clipPath2)" cx="776.5688" cy="566.4"/>
      <text x="753.0844" xml:space="preserve" y="570.5543" clip-path="url(#clipPath2)" font-family="sans-serif" stroke="none">Agent 5</text>
      <path fill="none" d="M612.4 282.1765 L612.4 306.5724" clip-path="url(#clipPath2)"/>
      <path fill="none" d="M515.7798 377.0132 L606.1962 318.046" clip-path="url(#clipPath2)"/>
      <path d="M597.3102 319.0657 L601.6804 325.7666 Z" clip-path="url(#clipPath2)" stroke="none"/>
      <path fill="none" stroke-miterlimit="10" d="M597.3102 319.0657 L601.6804 325.7666 Z" clip-path="url(#clipPath2)" stroke-linecap="square"/>
      <path fill="none" d="M612.4 321.4268 L612.4 377.0101" clip-path="url(#clipPath2)"/>
      <path d="M608.4 329.4268 L616.4 329.4268 Z" clip-path="url(#clipPath2)" stroke="none"/>
      <path fill="none" stroke-miterlimit="10" d="M608.4 329.4268 L616.4 329.4268 Z" clip-path="url(#clipPath2)" stroke-linecap="square"/>
      <path fill="none" d="M709.0202 377.0132 L618.6039 318.046" clip-path="url(#clipPath2)"/>
      <path d="M623.1197 325.7666 L627.4899 319.0657 Z" clip-path="url(#clipPath2)" stroke="none"/>
      <path fill="none" stroke-miterlimit="10" d="M623.1197 325.7666 L627.4899 319.0657 Z" clip-path="url(#clipPath2)" stroke-linecap="square"/>
      <text x="626.8" xml:space="preserve" y="309.2464" clip-path="url(#clipPath2)" font-family="sans-serif" stroke="none">HTTP API</text>
      <path fill="none" d="M569.8786 254.7071 L560.98 247.96 L553.3938 238.45 L547.915 226.78 L546.4467 220.7564" clip-path="url(#clipPath2)"/>
      <path fill="none" d="M612.4344 246.585 L612.4842 220.7548" clip-path="url(#clipPath2)"/>
      <path fill="none" d="M678.5758 220.7422 L677.08 226.8288 L671.5688 238.5109 L663.95 248.025 L654.9456 254.8257" clip-path="url(#clipPath2)"/>
      <path fill="none" d="M612.4 407.0145 L612.4 428.6772" clip-path="url(#clipPath2)"/>
      <path fill="none" d="M492.8 407.0145 L492.8 428.6772" clip-path="url(#clipPath2)"/>
      <path fill="none" d="M732 407.032 L732 428.693" clip-path="url(#clipPath2)"/>
      <path fill="none" d="M492.8 480.36 L492.8 458.6656" clip-path="url(#clipPath2)"/>
      <path fill="none" d="M612.4 480.36 L612.4 458.6933" clip-path="url(#clipPath2)"/>
      <path fill="none" d="M732 480.36 L732 458.7124" clip-path="url(#clipPath2)"/>
      <path fill="none" d="M463.5941 551.8629 L485.0466 510.36" clip-path="url(#clipPath2)"/>
      <path fill="none" d="M522.6489 551.8821 L500.7214 510.36" clip-path="url(#clipPath2)"/>
      <path fill="none" d="M612.4 551.4 L612.4 510.36" clip-path="url(#clipPath2)"/>
      <path fill="none" d="M702.1511 551.8821 L724.0786 510.36" clip-path="url(#clipPath2)"/>
      <path fill="none" d="M767.5768 552.0674 L741.4106 510.36" clip-path="url(#clipPath2)"/>
    </g>
  </g>
</svg>
